Coordinates
version=1
nRows=4
nColumns=107
inDegrees=yes

Units are S.I. units (second, meters, Newtons, ...)
If the header above contains a line with 'inDegrees', this indicates whether rotational values are in degrees (yes) or radians (no).

endheader
time	sternoclavicular_r2	sternoclavicular_r3	unrotscap_r3	unrotscap_r2	acromioclavicular_r2	acromioclavicular_r3	acromioclavicular_r1	unrothum_r1	unrothum_r3	unrothum_r2	elv_angle	shoulder_elv	shoulder1_r2	shoulder_rot	elbow_flexion	pro_sup	deviation	flexion	proximal_distal_r1	proximal_distal_r3	cmc_flexion	cmc_abduction	mp_flexion	ip_flexion	mcp2_flexion	mcp2_abduction	pm2_flexion	md2_flexion	mcp3_flexion	mcp3_abduction	pm3_flexion	md3_flexion	mcp4_flexion	mcp4_abduction	pm4_flexion	md4_flexion	mcp5_flexion	mcp5_abduction	pm5_flexion	md5_flexion	bicpt_tx	bicpt_ty	bicpt_tz	bicpt2_tx	bicpt2_ty	bicpt2_tz	ptpt_tx	ptpt_ty	ptpt_tz	FCUpt_tx	FCUpt_ty	FCUpt_tz	EDCpt_tx	EDCpt_ty	EDCpt_tz	APLpt_tx	APLpt_ty	APLpt_tz	FPLpt_tx	FPLpt_ty	FPLpt_tz	FPLpt2_tx	FPLpt2_ty	FPLpt2_tz	PEC1pt2_tx	PEC1pt2_ty	PEC1pt2_tz	PEC1pt3_tx	PEC1pt3_ty	PEC1pt3_tz	PEC2pt2_tx	PEC2pt2_ty	PEC2pt2_tz	PEC2pt3_tx	PEC2pt3_ty	PEC2pt3_tz	PEC3pt2_tx	PEC3pt2_ty	PEC3pt2_tz	PEC3pt3_tx	PEC3pt3_ty	PEC3pt3_tz	DELT2pt2a_tx	DELT2pt2a_ty	DELT2pt2a_tz	DELT2pt2_tx	DELT2pt2_ty	DELT2pt2_tz	LAT1pt2_tx	LAT1pt2_ty	LAT1pt2_tz	LAT1pt3_tx	LAT1pt3_ty	LAT1pt3_tz	LAT2pt2_tx	LAT2pt2_ty	LAT2pt2_tz	LAT2pt3_tx	LAT2pt3_ty	LAT2pt3_tz	LAT3pt2_tx	LAT3pt2_ty	LAT3pt2_tz	LAT3pt3_tx	LAT3pt3_ty	LAT3pt3_tz
      2.00000000	     -0.31393004	      0.13296595	     -0.13296595	      0.31393004	     -0.06356445	      0.51370550	      0.23090709	     -0.23090709	     -0.51370550	      0.06356445	    102.23546153	     74.32572721	     -1.78434542	    -36.74513425	     30.48438823	     77.54429909	      0.30550620	     -0.34004487	      0.33822035	     -0.17002244	     24.06872969	    -22.71611657	     -5.30168176	     -0.02511409	     20.92322090	      3.43757295	     18.42446464	    -10.99989249	     19.38527429	     -1.20912996	     13.14477497	     14.65257625	      4.89590555	     -5.56337855	     27.18438677	     25.60209096	     -8.52990843	    -11.97229161	     35.16806355	      5.14989836	      0.00090833	     -0.03109398	     -0.00486279	      0.01503217	     -0.01848123	     -0.00247394	      0.00182035	     -0.06860489	     -0.00629661	      0.01177768	     -0.18251393	     -0.00012218	     -0.00930529	      0.00312503	     -0.00050508	      0.00025108	      0.00010043	      0.00050216	      0.00032138	      0.00096414	      0.00054233	      0.00000225	     -0.00027988	     -0.00033586	      0.00243623	      0.00854747	      0.00594606	     -0.00796938	      0.01924212	     -0.01825111	      0.00243623	      0.00854747	      0.00594606	      0.00053680	      0.01783819	     -0.00937331	      0.00387762	      0.00475314	      0.01579317	      0.00000000	      0.00738558	      0.00000000	     -0.00697837	     -0.03224913	     -0.00608745	      0.02156385	     -0.00099326	     -0.01104114	     -0.00086713	      0.01453482	     -0.00594606	      0.00239494	      0.02097639	     -0.01734268	     -0.00582219	      0.01259409	     -0.00532668	     -0.01213988	      0.02659212	     -0.02977161	     -0.02279324	      0.01408061	     -0.00714353	     -0.01511291	      0.03072133	     -0.03720419
      2.03333333	     -0.31457911	      0.13324086	     -0.13324086	      0.31457911	     -0.06369587	      0.51476762	      0.23138450	     -0.23138450	     -0.51476762	      0.06369587	    102.07590752	     74.47940057	     -1.78156067	    -35.92809562	     30.15862759	     75.57163781	      0.28688782	     -0.40109208	      0.32198034	     -0.20054604	     23.47706815	    -22.48668902	     -5.31487285	     -0.10573137	     20.64500738	      2.98267060	     17.85252892	    -11.78990357	     19.14493345	     -1.59293731	     12.48652286	     14.53888685	      4.53817172	     -5.99778986	     27.04877738	     25.80960836	     -9.39192974	    -12.22886354	     34.96573561	      5.13215919	      0.00089755	     -0.03105664	     -0.00485677	      0.01519348	     -0.01839274	     -0.00278564	      0.00196611	     -0.06851064	     -0.00613770	      0.01155681	     -0.18257544	     -0.00016249	     -0.00906858	      0.00302252	     -0.00045183	      0.00027565	      0.00011026	      0.00055130	      0.00035283	      0.00105849	      0.00059540	      0.00000356	     -0.00028072	     -0.00033687	      0.00244127	      0.00856514	      0.00595836	     -0.00798585	      0.01928191	     -0.01828885	      0.00244127	      0.00856514	      0.00595836	      0.00053791	      0.01787507	     -0.00939269	      0.00388353	      0.00476296	      0.01580805	      0.00000000	      0.00741635	      0.00000000	     -0.00699279	     -0.03231581	     -0.00611301	      0.02127091	     -0.00096407	     -0.01058634	     -0.00086893	      0.01456487	     -0.00595836	      0.00239989	      0.02101976	     -0.01737854	     -0.00583422	      0.01262013	     -0.00533769	     -0.01216498	      0.02664710	     -0.02983316	     -0.02284037	      0.01410972	     -0.00715830	     -0.01514416	      0.03078484	     -0.03728111
      2.06666667	     -0.31469812	      0.13329127	     -0.13329127	      0.31469812	     -0.06371997	      0.51496237	      0.23147204	     -0.23147204	     -0.51496237	      0.06371997	    101.98125280	     74.50757750	     -1.77990864	    -35.64697424	     30.36175445	     76.40679185	      0.31284085	     -0.33442730	      0.34446229	     -0.16721365	     24.12623849	    -22.58060000	     -5.10087205	     -0.64706102	     19.62821364	      3.69273265	     18.27601808	    -11.91809256	     18.46423040	     -0.82605213	     13.06807405	     14.32813064	      4.68553491	     -5.40754049	     26.29695055	     26.15647687	     -8.91685616	    -12.13299173	     33.72969876	      5.11130804	      0.00090427	     -0.03107992	     -0.00486052	      0.01512627	     -0.01844792	     -0.00265434	      0.00190440	     -0.06855054	     -0.00620498	      0.01165017	     -0.18254953	     -0.00014578	     -0.00916879	      0.00306578	     -0.00047412	      0.00024850	      0.00009940	      0.00049701	      0.00031808	      0.00095425	      0.00053677	      0.00000212	     -0.00027978	     -0.00033574	      0.00244219	      0.00856838	      0.00596061	     -0.00798887	      0.01928920	     -0.01829577	      0.00244219	      0.00856838	      0.00596061	      0.00053811	      0.01788183	     -0.00939624	      0.00388462	      0.00476477	      0.01581077	      0.00000000	      0.00742200	      0.00000000	     -0.00699544	     -0.03232804	     -0.00611770	      0.02116805	     -0.00095406	     -0.01043139	     -0.00086926	      0.01457038	     -0.00596061	      0.00240080	      0.02102771	     -0.01738512	     -0.00583643	      0.01262491	     -0.00533971	     -0.01216958	      0.02665718	     -0.02984445	     -0.02284901	      0.01411506	     -0.00716101	     -0.01514989	      0.03079649	     -0.03729521
      2.10000000	     -0.31738269	      0.13442833	     -0.13442833	      0.31738269	     -0.06426354	      0.51935532	      0.23344664	     -0.23344664	     -0.51935532	      0.06426354	    101.21203206	     75.14317362	     -1.76648320	    -31.99482764	     29.92196459	     72.47368630	      0.32139307	     -0.35552403	      0.35162941	     -0.17776202	     22.67599136	    -22.41195524	     -4.32745770	     -0.24420054	     19.97002110	      2.92024547	     17.57777019	    -11.29330544	     18.65390256	     -1.66027966	     12.38180349	     14.78800692	      4.89518117	     -6.21557970	     25.97548607	     26.35456706	     -9.25318957	    -12.36614647	     34.09654215	      5.12059365	      0.00088973	     -0.03102951	     -0.00485241	      0.01542882	     -0.01832845	     -0.00326413	      0.00219501	     -0.06836262	     -0.00588814	      0.01121238	     -0.18266982	     -0.00021987	     -0.00869682	      0.00286397	     -0.00037247	      0.00025790	      0.00010316	      0.00051580	      0.00033011	      0.00099034	      0.00055707	      0.00000539	     -0.00028123	     -0.00033748	      0.00246303	      0.00864147	      0.00601146	     -0.00805702	      0.01945375	     -0.01845184	      0.00246303	      0.00864147	      0.00601146	      0.00054270	      0.01803438	     -0.00947640	      0.00390899	      0.00480541	      0.01587164	      0.00000000	      0.00755002	      0.00000000	     -0.00705512	     -0.03260382	     -0.00622402	      0.01973572	     -0.00082574	     -0.00849384	     -0.00087667	      0.01469468	     -0.00601146	      0.00242128	      0.02120709	     -0.01753342	     -0.00588622	      0.01273260	     -0.00538527	     -0.01227340	      0.02688458	     -0.03009904	     -0.02304393	      0.01423547	     -0.00722210	     -0.01527912	      0.03105920	     -0.03761336
